# xmcd
#
# Track frame offsets:
#	150
#	88445
#	110079
#
# Disc length: 2463 seconds
#
# Revision: 0
# Processed by: cddbd v1.5.1PL0 Copyright (c) Steve Scherf et al.
# Submitted via: audiograbber 1.83.01
#
DISCID=26099d03
DTITLE=Grateful Dead - Live At The Filimore In S. Francisco 28.02.1969  CD2
DYEAR=1969
DGENRE=Dream
TTITLE0=Dark Star
TTITLE1=Saint Stephen
TTITLE2=The Eleven
EXTD=
EXTT0=
EXTT1=
EXTT2=
PLAYORDER=
